<?xml version="1.0" standalone="no"?>
<svg width="1440" height="960" xmlns="http://www.w3.org/2000/svg" id="svgvm3"><g transform="translate(5,5)" style="font-family: sans-serif;"><g><rect width="1430" height="144" style="stroke: black; stroke-width: 1; fill: white;"/><g transform="translate(0,0)"><rect width="715" height="72" style="stroke-width: 1; stroke: black; fill: white;"/><text transform="translate(6, 24)" dx="0" dy="0" font-size="18pt" fill="black" style="font-weight: bold;"><tspan x="0" dy="0em">Network Device Techniques</tspan></text></g><g transform="translate(0,72)"><rect width="715" height="72" style="stroke-width: 1; stroke: black; fill: white;"/><text transform="translate(6, 9.5)" dx="0" dy="0" font-size="8pt" fill="black"><tspan x="0" dy="0" y="30.5">And what logs to use for detection purposes</tspan></text></g><line x1="0" x2="1430" y1="144" y2="144" style="stroke: black; stroke-width: 3;"/><g transform="translate(715,0)"><rect width="715" height="144" style="stroke-width: 1; stroke: black; fill: white;"/><text transform="translate(6, 14)" dx="0" dy="0" font-size="8pt" fill="black" style="font-weight: bold;">legend</text><g transform="translate(6,28)"><text transform="translate(16,9.5)" font-size="8pt" fill="black" dx="0" dy="0"><tspan x="0" dy="0em">High - Accounting</tspan></text><rect width="10" height="10" style="stroke-width: 1; stroke: black; fill: rgb(49, 130, 189);"/></g><g transform="translate(6,47.33333333333333)"><text transform="translate(16,9.5)" font-size="8pt" fill="black" dx="0" dy="0"><tspan x="0" dy="0em">Medium - Accounting</tspan></text><rect width="10" height="10" style="stroke-width: 1; stroke: black; fill: rgb(107, 174, 214);"/></g><g transform="translate(6,66.66666666666666)"><text transform="translate(16,9.5)" font-size="8pt" fill="black" dx="0" dy="0"><tspan x="0" dy="0em">Low - Accounting</tspan></text><rect width="10" height="10" style="stroke-width: 1; stroke: black; fill: rgb(158, 202, 225);"/></g><g transform="translate(6,86)"><text transform="translate(16,9.5)" font-size="8pt" fill="black" dx="0" dy="0"><tspan x="0" dy="0em">Device Syslog (1-7)</tspan></text><rect width="10" height="10" style="stroke-width: 1; stroke: black; fill: rgb(189, 189, 189);"/></g><g transform="translate(6,105.33333333333333)"><text transform="translate(16,9.5)" font-size="8pt" fill="black" dx="0" dy="0"><tspan x="0" dy="0em">Authentication Logs</tspan></text><rect width="10" height="10" style="stroke-width: 1; stroke: black; fill: rgb(161, 217, 155);"/></g><g transform="translate(6,124.66666666666666)"><text transform="translate(16,9.5)" font-size="8pt" fill="black" dx="0" dy="0"><tspan x="0" dy="0em">Netflow, IDS</tspan></text><rect width="10" height="10" style="stroke-width: 1; stroke: black; fill: rgb(188, 189, 220);"/></g></g></g><g transform="translate(0,145)"><g transform="translate(0, 0)"><g transform="translate(0,0)"><rect width="119.16666666666667" height="57.5" style="stroke: rgb(0, 0, 0); fill: white;"/><text font-size="10pt" transform="translate(3, 33.75)" dx="0" dy="0" style="fill: black; font-weight: bold;"><tspan x="0" dy="0em">Initial Access</tspan></text></g><g transform="translate(0,57.5)"><g transform="translate(0,0)"><rect width="119.16666666666667" height="57.5" style="stroke: rgb(0, 0, 0); fill: rgb(188, 189, 220);"/><text font-size="8pt" transform="translate(3, 3.5)" dx="0" dy="0" style="fill: black;"><tspan x="0" dy="0" y="15.125">Exploit Public-Facing</tspan><tspan x="0" dy="0" y="43.375">Application</tspan></text></g><g transform="translate(0,57.5)"><rect width="119.16666666666667" height="57.5" style="stroke: rgb(0, 0, 0); fill: rgb(161, 217, 155);"/><text font-size="8pt" transform="translate(3, 3.5)" dx="0" dy="0" style="fill: black;"><tspan x="0" dy="0" y="15.125">External Remote</tspan><tspan x="0" dy="0" y="43.375">Services</tspan></text></g><g transform="translate(0,115)"><rect width="119.16666666666667" height="57.5" style="stroke: rgb(0, 0, 0); fill: white;"/><text font-size="8pt" transform="translate(3, 3.5)" dx="0" dy="0" style="fill: black;"><tspan x="0" dy="0" y="15.125">Supply Chain</tspan><tspan x="0" dy="0" y="43.375">Compromise</tspan></text></g><g transform="translate(0,172.5)"><rect width="119.16666666666667" height="57.5" style="stroke: rgb(0, 0, 0); fill: rgb(161, 217, 155);"/><text font-size="8pt" transform="translate(3, 3.5)" dx="0" dy="0" style="fill: black;"><tspan x="0" dy="0" y="29.25">Valid Accounts</tspan></text></g></g></g><g transform="translate(119.16666666666667, 0)"><g transform="translate(0,0)"><rect width="119.16666666666667" height="57.5" style="stroke: rgb(0, 0, 0); fill: white;"/><text font-size="10pt" transform="translate(3, 33.75)" dx="0" dy="0" style="fill: black; font-weight: bold;"><tspan x="0" dy="0em">Execution</tspan></text></g><g transform="translate(0,57.5)"><g transform="translate(0,0)"><rect width="119.16666666666667" height="57.5" style="stroke: rgb(0, 0, 0); fill: rgb(198, 219, 239);"/><text font-size="8pt" transform="translate(3, 3.5)" dx="0" dy="0" style="fill: black;"><tspan x="0" dy="0" y="15.125">Command-Line</tspan><tspan x="0" dy="0" y="43.375">Interface</tspan></text></g><g transform="translate(0,57.5)"><rect width="119.16666666666667" height="57.5" style="stroke: rgb(0, 0, 0); fill: rgb(198, 219, 239);"/><text font-size="8pt" transform="translate(3, 3.5)" dx="0" dy="0" style="fill: black;"><tspan x="0" dy="0" y="15.125">Graphical User</tspan><tspan x="0" dy="0" y="43.375">Interface</tspan></text></g><g transform="translate(0,115)"><rect width="119.16666666666667" height="57.5" style="stroke: rgb(0, 0, 0); fill: rgb(107, 174, 214);"/><text font-size="8pt" transform="translate(3, 3.5)" dx="0" dy="0" style="fill: black;"><tspan x="0" dy="0" y="29.25">Local Job Scheduling</tspan></text></g></g></g><g transform="translate(238.33333333333334, 0)"><g transform="translate(0,0)"><rect width="119.16666666666667" height="57.5" style="stroke: rgb(0, 0, 0); fill: white;"/><text font-size="10pt" transform="translate(3, 33.75)" dx="0" dy="0" style="fill: black; font-weight: bold;"><tspan x="0" dy="0em">Persistence</tspan></text></g><g transform="translate(0,57.5)"><g transform="translate(0,0)"><rect width="119.16666666666667" height="57.5" style="stroke: rgb(0, 0, 0); fill: rgb(49, 130, 189);"/><text font-size="8pt" transform="translate(3, 3.5)" dx="0" dy="0" style="fill: black;"><tspan x="0" dy="0" y="29.25">Account Manipulation</tspan></text></g><g transform="translate(0,57.5)"><rect width="119.16666666666667" height="57.5" style="stroke: rgb(0, 0, 0); fill: rgb(49, 130, 189);"/><text font-size="8pt" transform="translate(3, 3.5)" dx="0" dy="0" style="fill: black;"><tspan x="0" dy="0" y="29.25">Create Account</tspan></text></g><g transform="translate(0,115)"><rect width="119.16666666666667" height="57.5" style="stroke: rgb(0, 0, 0); fill: rgb(161, 217, 155);"/><text font-size="8pt" transform="translate(3, 3.5)" dx="0" dy="0" style="fill: black;"><tspan x="0" dy="0" y="15.125">External Remote</tspan><tspan x="0" dy="0" y="43.375">Services</tspan></text></g><g transform="translate(0,172.5)"><rect width="119.16666666666667" height="57.5" style="stroke: rgb(0, 0, 0); fill: rgb(107, 174, 214);"/><text font-size="8pt" transform="translate(3, 3.5)" dx="0" dy="0" style="fill: black;"><tspan x="0" dy="0" y="29.25">Local Job Scheduling</tspan></text></g><g transform="translate(0,230)"><rect width="119.16666666666667" height="57.5" style="stroke: rgb(0, 0, 0); fill: rgb(188, 189, 220);"/><text font-size="8pt" transform="translate(3, 3.5)" dx="0" dy="0" style="fill: black;"><tspan x="0" dy="0" y="29.25">Port Knocking</tspan></text></g><g transform="translate(0,287.5)"><rect width="119.16666666666667" height="57.5" style="stroke: rgb(0, 0, 0); fill: rgb(161, 217, 155);"/><text font-size="8pt" transform="translate(3, 3.5)" dx="0" dy="0" style="fill: black;"><tspan x="0" dy="0" y="29.25">Redundant Access</tspan></text></g><g transform="translate(0,345)"><rect width="119.16666666666667" height="57.5" style="stroke: rgb(0, 0, 0); fill: rgb(189, 189, 189);"/><text font-size="8pt" transform="translate(3, 3.5)" dx="0" dy="0" style="fill: black;"><tspan x="0" dy="0" y="29.25">System Firmware</tspan></text></g><g transform="translate(0,402.5)"><rect width="119.16666666666667" height="57.5" style="stroke: rgb(0, 0, 0); fill: rgb(161, 217, 155);"/><text font-size="8pt" transform="translate(3, 3.5)" dx="0" dy="0" style="fill: black;"><tspan x="0" dy="0" y="29.25">Valid Accounts</tspan></text></g><g transform="translate(0,460)"><rect width="119.16666666666667" height="57.5" style="stroke: rgb(0, 0, 0); fill: rgb(107, 174, 214);"/><text font-size="8pt" transform="translate(3, 3.5)" dx="0" dy="0" style="fill: black;"><tspan x="0" dy="0" y="29.25">Web Shell</tspan></text></g></g></g><g transform="translate(357.5, 0)"><g transform="translate(0,0)"><rect width="119.16666666666667" height="57.5" style="stroke: rgb(0, 0, 0); fill: white;"/><text font-size="10pt" transform="translate(3, 33.75)" dx="0" dy="0" style="fill: black; font-weight: bold;"><tspan x="0" dy="0em">Privilege</tspan><tspan x="0" dy="1.1em">Escalation</tspan></text></g><g transform="translate(0,57.5)"><g transform="translate(0,0)"><rect width="119.16666666666667" height="57.5" style="stroke: rgb(0, 0, 0); fill: rgb(189, 189, 189);"/><text font-size="8pt" transform="translate(3, 3.5)" dx="0" dy="0" style="fill: black;"><tspan x="0" dy="0" y="15.125">Exploitation for</tspan><tspan x="0" dy="0" y="43.375">Privilege Escalation</tspan></text></g><g transform="translate(0,57.5)"><rect width="119.16666666666667" height="57.5" style="stroke: rgb(0, 0, 0); fill: rgb(161, 217, 155);"/><text font-size="8pt" transform="translate(3, 3.5)" dx="0" dy="0" style="fill: black;"><tspan x="0" dy="0" y="29.25">Valid Accounts</tspan></text></g><g transform="translate(0,115)"><rect width="119.16666666666667" height="57.5" style="stroke: rgb(0, 0, 0); fill: rgb(107, 174, 214);"/><text font-size="8pt" transform="translate(3, 3.5)" dx="0" dy="0" style="fill: black;"><tspan x="0" dy="0" y="29.25">Web Shell</tspan></text></g></g></g><g transform="translate(476.6666666666667, 0)"><g transform="translate(0,0)"><rect width="119.16666666666667" height="57.5" style="stroke: rgb(0, 0, 0); fill: white;"/><text font-size="10pt" transform="translate(3, 33.75)" dx="0" dy="0" style="fill: black; font-weight: bold;"><tspan x="0" dy="0em">Defense Evasion</tspan></text></g><g transform="translate(0,57.5)"><g transform="translate(0,0)"><rect width="119.16666666666667" height="57.5" style="stroke: rgb(0, 0, 0); fill: rgb(49, 130, 189);"/><text font-size="8pt" transform="translate(3, 3.5)" dx="0" dy="0" style="fill: black;"><tspan x="0" dy="0" y="15.125">Clear Command</tspan><tspan x="0" dy="0" y="43.375">History</tspan></text></g><g transform="translate(0,57.5)"><rect width="119.16666666666667" height="57.5" style="stroke: rgb(0, 0, 0); fill: rgb(49, 130, 189);"/><text font-size="8pt" transform="translate(3, 3.5)" dx="0" dy="0" style="fill: black;"><tspan x="0" dy="0" y="15.125">Disabling Security</tspan><tspan x="0" dy="0" y="43.375">Tools</tspan></text></g><g transform="translate(0,115)"><rect width="119.16666666666667" height="57.5" style="stroke: rgb(0, 0, 0); fill: rgb(189, 189, 189);"/><text font-size="8pt" transform="translate(3, 3.5)" dx="0" dy="0" style="fill: black;"><tspan x="0" dy="0" y="15.125">Exploitation for</tspan><tspan x="0" dy="0" y="43.375">Defense Evasion</tspan></text></g><g transform="translate(0,172.5)"><rect width="119.16666666666667" height="57.5" style="stroke: rgb(0, 0, 0); fill: rgb(107, 174, 214);"/><text font-size="8pt" transform="translate(3, 3.5)" dx="0" dy="0" style="fill: black;"><tspan x="0" dy="0" y="29.25">File Deletion</tspan></text></g><g transform="translate(0,230)"><rect width="119.16666666666667" height="57.5" style="stroke: rgb(0, 0, 0); fill: rgb(49, 130, 189);"/><text font-size="8pt" transform="translate(3, 3.5)" dx="0" dy="0" style="fill: black;"><tspan x="0" dy="0" y="15.125">Indicator Removal on</tspan><tspan x="0" dy="0" y="43.375">Host</tspan></text></g><g transform="translate(0,287.5)"><rect width="119.16666666666667" height="57.5" style="stroke: rgb(0, 0, 0); fill: rgb(49, 130, 189);"/><text font-size="8pt" transform="translate(3, 3.5)" dx="0" dy="0" style="fill: black;"><tspan x="0" dy="0" y="29.25">Install Root Certificate</tspan></text></g><g transform="translate(0,345)"><rect width="119.16666666666667" height="57.5" style="stroke: rgb(0, 0, 0); fill: rgb(188, 189, 220);"/><text font-size="8pt" transform="translate(3, 3.5)" dx="0" dy="0" style="fill: black;"><tspan x="0" dy="0" y="29.25">Port Knocking</tspan></text></g><g transform="translate(0,402.5)"><rect width="119.16666666666667" height="57.5" style="stroke: rgb(0, 0, 0); fill: rgb(161, 217, 155);"/><text font-size="8pt" transform="translate(3, 3.5)" dx="0" dy="0" style="fill: black;"><tspan x="0" dy="0" y="29.25">Redundant Access</tspan></text></g><g transform="translate(0,460)"><rect width="119.16666666666667" height="57.5" style="stroke: rgb(0, 0, 0); fill: rgb(161, 217, 155);"/><text font-size="8pt" transform="translate(3, 3.5)" dx="0" dy="0" style="fill: black;"><tspan x="0" dy="0" y="29.25">Valid Accounts</tspan></text></g><g transform="translate(0,517.5)"><rect width="119.16666666666667" height="57.5" style="stroke: rgb(0, 0, 0); fill: rgb(188, 189, 220);"/><text font-size="8pt" transform="translate(3, 3.5)" dx="0" dy="0" style="fill: black;"><tspan x="0" dy="0" y="29.25">Web Service</tspan></text></g></g></g><g transform="translate(595.8333333333334, 0)"><g transform="translate(0,0)"><rect width="119.16666666666667" height="57.5" style="stroke: rgb(0, 0, 0); fill: white;"/><text font-size="10pt" transform="translate(3, 33.75)" dx="0" dy="0" style="fill: black; font-weight: bold;"><tspan x="0" dy="0em">Credential</tspan><tspan x="0" dy="1.1em">Access</tspan></text></g><g transform="translate(0,57.5)"><g transform="translate(0,0)"><rect width="119.16666666666667" height="57.5" style="stroke: rgb(0, 0, 0); fill: rgb(49, 130, 189);"/><text font-size="8pt" transform="translate(3, 3.5)" dx="0" dy="0" style="fill: black;"><tspan x="0" dy="0" y="29.25">Account Manipulation</tspan></text></g><g transform="translate(0,57.5)"><rect width="119.16666666666667" height="57.5" style="stroke: rgb(0, 0, 0); fill: rgb(107, 174, 214);"/><text font-size="8pt" transform="translate(3, 3.5)" dx="0" dy="0" style="fill: black;"><tspan x="0" dy="0" y="29.25">Bash History</tspan></text></g><g transform="translate(0,115)"><rect width="119.16666666666667" height="57.5" style="stroke: rgb(0, 0, 0); fill: rgb(161, 217, 155);"/><text font-size="8pt" transform="translate(3, 3.5)" dx="0" dy="0" style="fill: black;"><tspan x="0" dy="0" y="29.25">Brute Force</tspan></text></g><g transform="translate(0,172.5)"><rect width="119.16666666666667" height="57.5" style="stroke: rgb(0, 0, 0); fill: rgb(158, 202, 225);"/><text font-size="8pt" transform="translate(3, 3.5)" dx="0" dy="0" style="fill: black;"><tspan x="0" dy="0" y="29.25">Credential Dumping</tspan></text></g><g transform="translate(0,230)"><rect width="119.16666666666667" height="57.5" style="stroke: rgb(0, 0, 0); fill: rgb(158, 202, 225);"/><text font-size="8pt" transform="translate(3, 3.5)" dx="0" dy="0" style="fill: black;"><tspan x="0" dy="0" y="29.25">Credentials in Files</tspan></text></g><g transform="translate(0,287.5)"><rect width="119.16666666666667" height="57.5" style="stroke: rgb(0, 0, 0); fill: rgb(189, 189, 189);"/><text font-size="8pt" transform="translate(3, 3.5)" dx="0" dy="0" style="fill: black;"><tspan x="0" dy="0" y="15.125">Exploitation for</tspan><tspan x="0" dy="0" y="43.375">Credential Access</tspan></text></g><g transform="translate(0,345)"><rect width="119.16666666666667" height="57.5" style="stroke: rgb(0, 0, 0); fill: rgb(107, 174, 214);"/><text font-size="8pt" transform="translate(3, 3.5)" dx="0" dy="0" style="fill: black;"><tspan x="0" dy="0" y="29.25">Input Capture</tspan></text></g><g transform="translate(0,402.5)"><rect width="119.16666666666667" height="57.5" style="stroke: rgb(0, 0, 0); fill: rgb(107, 174, 214);"/><text font-size="8pt" transform="translate(3, 3.5)" dx="0" dy="0" style="fill: black;"><tspan x="0" dy="0" y="29.25">Network Sniffing</tspan></text></g><g transform="translate(0,460)"><rect width="119.16666666666667" height="57.5" style="stroke: rgb(0, 0, 0); fill: rgb(49, 130, 189);"/><text font-size="8pt" transform="translate(3, 3.5)" dx="0" dy="0" style="fill: black;"><tspan x="0" dy="0" y="29.25">Private Keys</tspan></text></g></g></g><g transform="translate(715, 0)"><g transform="translate(0,0)"><rect width="119.16666666666667" height="57.5" style="stroke: rgb(0, 0, 0); fill: white;"/><text font-size="10pt" transform="translate(3, 33.75)" dx="0" dy="0" style="fill: black; font-weight: bold;"><tspan x="0" dy="0em">Discovery</tspan></text></g><g transform="translate(0,57.5)"><g transform="translate(0,0)"><rect width="119.16666666666667" height="57.5" style="stroke: rgb(0, 0, 0); fill: rgb(158, 202, 225);"/><text font-size="8pt" transform="translate(3, 3.5)" dx="0" dy="0" style="fill: black;"><tspan x="0" dy="0" y="29.25">Account Discovery</tspan></text></g><g transform="translate(0,57.5)"><rect width="119.16666666666667" height="57.5" style="stroke: rgb(0, 0, 0); fill: rgb(158, 202, 225);"/><text font-size="8pt" transform="translate(3, 3.5)" dx="0" dy="0" style="fill: black;"><tspan x="0" dy="0" y="15.125">File and Directory</tspan><tspan x="0" dy="0" y="43.375">Discovery</tspan></text></g><g transform="translate(0,115)"><rect width="119.16666666666667" height="57.5" style="stroke: rgb(0, 0, 0); fill: rgb(188, 189, 220);"/><text font-size="8pt" transform="translate(3, 3.5)" dx="0" dy="0" style="fill: black;"><tspan x="0" dy="0" y="15.125">Network Service</tspan><tspan x="0" dy="0" y="43.375">Scanning</tspan></text></g><g transform="translate(0,172.5)"><rect width="119.16666666666667" height="57.5" style="stroke: rgb(0, 0, 0); fill: rgb(107, 174, 214);"/><text font-size="8pt" transform="translate(3, 3.5)" dx="0" dy="0" style="fill: black;"><tspan x="0" dy="0" y="29.25">Network Sniffing</tspan></text></g><g transform="translate(0,230)"><rect width="119.16666666666667" height="57.5" style="stroke: rgb(0, 0, 0); fill: rgb(158, 202, 225);"/><text font-size="8pt" transform="translate(3, 3.5)" dx="0" dy="0" style="fill: black;"><tspan x="0" dy="0" y="15.125">Password Policy</tspan><tspan x="0" dy="0" y="43.375">Discovery</tspan></text></g><g transform="translate(0,287.5)"><rect width="119.16666666666667" height="57.5" style="stroke: rgb(0, 0, 0); fill: rgb(158, 202, 225);"/><text font-size="8pt" transform="translate(3, 3.5)" dx="0" dy="0" style="fill: black;"><tspan x="0" dy="0" y="29.25">Process Discovery</tspan></text></g><g transform="translate(0,345)"><rect width="119.16666666666667" height="57.5" style="stroke: rgb(0, 0, 0); fill: rgb(158, 202, 225);"/><text font-size="8pt" transform="translate(3, 3.5)" dx="0" dy="0" style="fill: black;"><tspan x="0" dy="0" y="15.125">Remote System</tspan><tspan x="0" dy="0" y="43.375">Discovery</tspan></text></g><g transform="translate(0,402.5)"><rect width="119.16666666666667" height="57.5" style="stroke: rgb(0, 0, 0); fill: rgb(158, 202, 225);"/><text font-size="8pt" transform="translate(3, 3.5)" dx="0" dy="0" style="fill: black;"><tspan x="0" dy="0" y="15.125">System Information</tspan><tspan x="0" dy="0" y="43.375">Discovery</tspan></text></g><g transform="translate(0,460)"><rect width="119.16666666666667" height="57.5" style="stroke: rgb(0, 0, 0); fill: rgb(158, 202, 225);"/><text font-size="8pt" transform="translate(3, 3.5)" dx="0" dy="0" style="fill: black;"><tspan x="0" dy="0" y="10.416666666666666">System Network</tspan><tspan x="0" dy="0" y="29.25">Configuration</tspan><tspan x="0" dy="0" y="48.08333333333333">Discovery</tspan></text></g><g transform="translate(0,517.5)"><rect width="119.16666666666667" height="57.5" style="stroke: rgb(0, 0, 0); fill: rgb(158, 202, 225);"/><text font-size="8pt" transform="translate(3, 3.5)" dx="0" dy="0" style="fill: black;"><tspan x="0" dy="0" y="15.125">System Network</tspan><tspan x="0" dy="0" y="43.375">Connections Discovery</tspan></text></g><g transform="translate(0,575)"><rect width="119.16666666666667" height="57.5" style="stroke: rgb(0, 0, 0); fill: rgb(158, 202, 225);"/><text font-size="8pt" transform="translate(3, 3.5)" dx="0" dy="0" style="fill: black;"><tspan x="0" dy="0" y="15.125">System Owner/User</tspan><tspan x="0" dy="0" y="43.375">Discovery</tspan></text></g><g transform="translate(0,632.5)"><rect width="119.16666666666667" height="57.5" style="stroke: rgb(0, 0, 0); fill: rgb(158, 202, 225);"/><text font-size="8pt" transform="translate(3, 3.5)" dx="0" dy="0" style="fill: black;"><tspan x="0" dy="0" y="29.25">System Time Discovery</tspan></text></g></g></g><g transform="translate(834.1666666666667, 0)"><g transform="translate(0,0)"><rect width="119.16666666666667" height="57.5" style="stroke: rgb(0, 0, 0); fill: white;"/><text font-size="10pt" transform="translate(3, 33.75)" dx="0" dy="0" style="fill: black; font-weight: bold;"><tspan x="0" dy="0em">Lateral Movement</tspan></text></g><g transform="translate(0,57.5)"><g transform="translate(0,0)"><rect width="119.16666666666667" height="57.5" style="stroke: rgb(0, 0, 0); fill: rgb(189, 189, 189);"/><text font-size="8pt" transform="translate(3, 3.5)" dx="0" dy="0" style="fill: black;"><tspan x="0" dy="0" y="15.125">Exploitation of Remote</tspan><tspan x="0" dy="0" y="43.375">Services</tspan></text></g><g transform="translate(0,57.5)"><rect width="119.16666666666667" height="57.5" style="stroke: rgb(0, 0, 0); fill: rgb(158, 202, 225);"/><text font-size="8pt" transform="translate(3, 3.5)" dx="0" dy="0" style="fill: black;"><tspan x="0" dy="0" y="29.25">Remote File Copy</tspan></text></g><g transform="translate(0,115)"><rect width="119.16666666666667" height="57.5" style="stroke: rgb(0, 0, 0); fill: rgb(188, 189, 220);"/><text font-size="8pt" transform="translate(3, 3.5)" dx="0" dy="0" style="fill: black;"><tspan x="0" dy="0" y="29.25">Remote Services</tspan></text></g><g transform="translate(0,172.5)"><rect width="119.16666666666667" height="57.5" style="stroke: rgb(0, 0, 0); fill: rgb(161, 217, 155);"/><text font-size="8pt" transform="translate(3, 3.5)" dx="0" dy="0" style="fill: black;"><tspan x="0" dy="0" y="29.25">SSH Hijacking</tspan></text></g></g></g><g transform="translate(953.3333333333334, 0)"><g transform="translate(0,0)"><rect width="119.16666666666667" height="57.5" style="stroke: rgb(0, 0, 0); fill: white;"/><text font-size="10pt" transform="translate(3, 33.75)" dx="0" dy="0" style="fill: black; font-weight: bold;"><tspan x="0" dy="0em">Collection</tspan></text></g><g transform="translate(0,57.5)"><g transform="translate(0,0)"><rect width="119.16666666666667" height="57.5" style="stroke: rgb(0, 0, 0); fill: rgb(158, 202, 225);"/><text font-size="8pt" transform="translate(3, 3.5)" dx="0" dy="0" style="fill: black;"><tspan x="0" dy="0" y="15.125">Data from Local</tspan><tspan x="0" dy="0" y="43.375">System</tspan></text></g><g transform="translate(0,57.5)"><rect width="119.16666666666667" height="57.5" style="stroke: rgb(0, 0, 0); fill: rgb(158, 202, 225);"/><text font-size="8pt" transform="translate(3, 3.5)" dx="0" dy="0" style="fill: black;"><tspan x="0" dy="0" y="29.25">Data Staged</tspan></text></g><g transform="translate(0,115)"><rect width="119.16666666666667" height="57.5" style="stroke: rgb(0, 0, 0); fill: rgb(107, 174, 214);"/><text font-size="8pt" transform="translate(3, 3.5)" dx="0" dy="0" style="fill: black;"><tspan x="0" dy="0" y="29.25">Input Capture</tspan></text></g></g></g><g transform="translate(1072.5, 0)"><g transform="translate(0,0)"><rect width="119.16666666666667" height="57.5" style="stroke: rgb(0, 0, 0); fill: white;"/><text font-size="10pt" transform="translate(3, 33.75)" dx="0" dy="0" style="fill: black; font-weight: bold;"><tspan x="0" dy="0em">Command And</tspan><tspan x="0" dy="1.1em">Control</tspan></text></g><g transform="translate(0,57.5)"><g transform="translate(0,0)"><rect width="119.16666666666667" height="57.5" style="stroke: rgb(0, 0, 0); fill: rgb(188, 189, 220);"/><text font-size="8pt" transform="translate(3, 3.5)" dx="0" dy="0" style="fill: black;"><tspan x="0" dy="0" y="29.25">Commonly Used Port</tspan></text></g><g transform="translate(0,57.5)"><rect width="119.16666666666667" height="57.5" style="stroke: rgb(0, 0, 0); fill: rgb(188, 189, 220);"/><text font-size="8pt" transform="translate(3, 3.5)" dx="0" dy="0" style="fill: black;"><tspan x="0" dy="0" y="29.25">Port Knocking</tspan></text></g><g transform="translate(0,115)"><rect width="119.16666666666667" height="57.5" style="stroke: rgb(0, 0, 0); fill: rgb(158, 202, 225);"/><text font-size="8pt" transform="translate(3, 3.5)" dx="0" dy="0" style="fill: black;"><tspan x="0" dy="0" y="29.25">Remote File Copy</tspan></text></g><g transform="translate(0,172.5)"><rect width="119.16666666666667" height="57.5" style="stroke: rgb(0, 0, 0); fill: rgb(188, 189, 220);"/><text font-size="8pt" transform="translate(3, 3.5)" dx="0" dy="0" style="fill: black;"><tspan x="0" dy="0" y="15.125">Standard Application</tspan><tspan x="0" dy="0" y="43.375">Layer Protocol</tspan></text></g><g transform="translate(0,230)"><rect width="119.16666666666667" height="57.5" style="stroke: rgb(0, 0, 0); fill: rgb(188, 189, 220);"/><text font-size="8pt" transform="translate(3, 3.5)" dx="0" dy="0" style="fill: black;"><tspan x="0" dy="0" y="29.25">Web Service</tspan></text></g></g></g><g transform="translate(1191.6666666666667, 0)"><g transform="translate(0,0)"><rect width="119.16666666666667" height="57.5" style="stroke: rgb(0, 0, 0); fill: white;"/><text font-size="10pt" transform="translate(3, 33.75)" dx="0" dy="0" style="fill: black; font-weight: bold;"><tspan x="0" dy="0em">Exfiltration</tspan></text></g><g transform="translate(0,57.5)"><g transform="translate(0,0)"><rect width="119.16666666666667" height="57.5" style="stroke: rgb(0, 0, 0); fill: rgb(158, 202, 225);"/><text font-size="8pt" transform="translate(3, 3.5)" dx="0" dy="0" style="fill: black;"><tspan x="0" dy="0" y="29.25">Data Compressed</tspan></text></g><g transform="translate(0,57.5)"><rect width="119.16666666666667" height="57.5" style="stroke: rgb(0, 0, 0); fill: rgb(188, 189, 220);"/><text font-size="8pt" transform="translate(3, 3.5)" dx="0" dy="0" style="fill: black;"><tspan x="0" dy="0" y="15.125">Data Transfer Size</tspan><tspan x="0" dy="0" y="43.375">Limits</tspan></text></g><g transform="translate(0,115)"><rect width="119.16666666666667" height="57.5" style="stroke: rgb(0, 0, 0); fill: rgb(188, 189, 220);"/><text font-size="8pt" transform="translate(3, 3.5)" dx="0" dy="0" style="fill: black;"><tspan x="0" dy="0" y="15.125">Exfiltration Over</tspan><tspan x="0" dy="0" y="43.375">Alternative Protocol</tspan></text></g><g transform="translate(0,172.5)"><rect width="119.16666666666667" height="57.5" style="stroke: rgb(0, 0, 0); fill: rgb(188, 189, 220);"/><text font-size="8pt" transform="translate(3, 3.5)" dx="0" dy="0" style="fill: black;"><tspan x="0" dy="0" y="10.416666666666666">Exfiltration Over</tspan><tspan x="0" dy="0" y="29.25">Command and Control</tspan><tspan x="0" dy="0" y="48.08333333333333">Channel</tspan></text></g><g transform="translate(0,230)"><rect width="119.16666666666667" height="57.5" style="stroke: rgb(0, 0, 0); fill: white;"/><text font-size="8pt" transform="translate(3, 3.5)" dx="0" dy="0" style="fill: black;"><tspan x="0" dy="0" y="15.125">Exfiltration Over Other</tspan><tspan x="0" dy="0" y="43.375">Network Medium</tspan></text></g><g transform="translate(0,287.5)"><rect width="119.16666666666667" height="57.5" style="stroke: rgb(0, 0, 0); fill: rgb(189, 189, 189);"/><text font-size="8pt" transform="translate(3, 3.5)" dx="0" dy="0" style="fill: black;"><tspan x="0" dy="0" y="15.125">Exfiltration Over</tspan><tspan x="0" dy="0" y="43.375">Physical Medium</tspan></text></g><g transform="translate(0,345)"><rect width="119.16666666666667" height="57.5" style="stroke: rgb(0, 0, 0); fill: rgb(188, 189, 220);"/><text font-size="8pt" transform="translate(3, 3.5)" dx="0" dy="0" style="fill: black;"><tspan x="0" dy="0" y="29.25">Scheduled Transfer</tspan></text></g></g></g><g transform="translate(1310.8333333333335, 0)"><g transform="translate(0,0)"><rect width="119.16666666666667" height="57.5" style="stroke: rgb(0, 0, 0); fill: white;"/><text font-size="10pt" transform="translate(3, 33.75)" dx="0" dy="0" style="fill: black; font-weight: bold;"><tspan x="0" dy="0em">Impact</tspan></text></g><g transform="translate(0,57.5)"><g transform="translate(0,0)"><rect width="119.16666666666667" height="57.5" style="stroke: rgb(0, 0, 0); fill: white;"/><text font-size="8pt" transform="translate(3, 3.5)" dx="0" dy="0" style="fill: black;"><tspan x="0" dy="0" y="29.25">Data Destruction</tspan></text></g><g transform="translate(0,57.5)"><rect width="119.16666666666667" height="57.5" style="stroke: rgb(0, 0, 0); fill: rgb(107, 174, 214);"/><text font-size="8pt" transform="translate(3, 3.5)" dx="0" dy="0" style="fill: black;"><tspan x="0" dy="0" y="29.25">Disk Content Wipe</tspan></text></g><g transform="translate(0,115)"><rect width="119.16666666666667" height="57.5" style="stroke: rgb(0, 0, 0); fill: rgb(107, 174, 214);"/><text font-size="8pt" transform="translate(3, 3.5)" dx="0" dy="0" style="fill: black;"><tspan x="0" dy="0" y="29.25">Disk Structure Wipe</tspan></text></g><g transform="translate(0,172.5)"><rect width="119.16666666666667" height="57.5" style="stroke: rgb(0, 0, 0); fill: rgb(107, 174, 214);"/><text font-size="8pt" transform="translate(3, 3.5)" dx="0" dy="0" style="fill: black;"><tspan x="0" dy="0" y="15.125">Endpoint Denial of</tspan><tspan x="0" dy="0" y="43.375">Service</tspan></text></g><g transform="translate(0,230)"><rect width="119.16666666666667" height="57.5" style="stroke: rgb(0, 0, 0); fill: rgb(107, 174, 214);"/><text font-size="8pt" transform="translate(3, 3.5)" dx="0" dy="0" style="fill: black;"><tspan x="0" dy="0" y="29.25">Firmware Corruption</tspan></text></g><g transform="translate(0,287.5)"><rect width="119.16666666666667" height="57.5" style="stroke: rgb(0, 0, 0); fill: rgb(107, 174, 214);"/><text font-size="8pt" transform="translate(3, 3.5)" dx="0" dy="0" style="fill: black;"><tspan x="0" dy="0" y="15.125">Inhibit System</tspan><tspan x="0" dy="0" y="43.375">Recovery</tspan></text></g><g transform="translate(0,345)"><rect width="119.16666666666667" height="57.5" style="stroke: rgb(0, 0, 0); fill: rgb(188, 189, 220);"/><text font-size="8pt" transform="translate(3, 3.5)" dx="0" dy="0" style="fill: black;"><tspan x="0" dy="0" y="15.125">Network Denial of</tspan><tspan x="0" dy="0" y="43.375">Service</tspan></text></g><g transform="translate(0,402.5)"><rect width="119.16666666666667" height="57.5" style="stroke: rgb(0, 0, 0); fill: rgb(158, 202, 225);"/><text font-size="8pt" transform="translate(3, 3.5)" dx="0" dy="0" style="fill: black;"><tspan x="0" dy="0" y="15.125">Stored Data</tspan><tspan x="0" dy="0" y="43.375">Manipulation</tspan></text></g><g transform="translate(0,460)"><rect width="119.16666666666667" height="57.5" style="stroke: rgb(0, 0, 0); fill: rgb(107, 174, 214);"/><text font-size="8pt" transform="translate(3, 3.5)" dx="0" dy="0" style="fill: black;"><tspan x="0" dy="0" y="15.125">Transmitted Data</tspan><tspan x="0" dy="0" y="43.375">Manipulation</tspan></text></g></g></g></g></g></svg>