<?xml version="1.0" standalone="no"?>
<svg width="1248" height="528" xmlns="http://www.w3.org/2000/svg" id="svgvm0"><g transform="translate(5,5)" style="font-family: sans-serif;"><g><g transform="translate(0, 0)"><g transform="translate(0,5)"><rect class="header-box" width="603.1282051282052" height="38" stroke="black" fill="white" rx="5"/><rect class="label-cover" x="8" y="-10" width="34.703125" height="18" fill="white" rx="5"/><text class="header-box-label" x="10" font-size="12" y="3">about</text><g class="header-box-content" transform="translate(5, 0)"><g transform="translate(0, 0.926829268292682)"><text font-size="14.08780487804878"><tspan x="4" y="13.304878048780488">Techniques</tspan></text><line x1="0" x2="593.1282051282052" y1="17.609756097560975" y2="17.609756097560975" stroke="#dddddd"/></g><g transform="translate(0, 19.463414634146343)"><text font-size="14.08780487804878"><tspan x="4" y="13.304878048780488">Detect with AAA and Syslog Data</tspan></text></g></g></g></g><g transform="translate(634.8717948717949, 0)"><g transform="translate(0,5)"><rect class="header-box" width="603.1282051282052" height="38" stroke="black" fill="white" rx="5"/><rect class="label-cover" x="8" y="-10" width="43.6875" height="18" fill="white" rx="5"/><text class="header-box-label" x="10" font-size="12" y="3">domain</text><g class="header-box-content" transform="translate(5, 0)"><g transform="translate(0, 1.8095238095238102)"><text font-size="27.504761904761907"><tspan x="4" y="25.69047619047619">Enterprise ATT&amp;CK v8</tspan></text></g></g></g></g></g><g transform="translate(0,49)"><g><g class="tactic initial-access" transform="translate(0, 0)"><g class="techniques"><g class="technique T1190" transform="translate(0, 42.72727272727273)"><rect class="cell" height="42.72727272727273" width="112.54545454545455" fill="white" stroke="#6B7279"/><polygon class="sidebar" transform="translate(0, 42.72727272727273)" points="0,0 12,0 12,0" fill="#6B7279" visibility="hidden"/><text font-size="11.393939393939394" fill="black"><tspan x="4" y="10.954545454545453">Exploit</tspan><tspan x="4" y="24.863636363636363">Public-Facing</tspan><tspan x="4" y="38.77272727272727">Application</tspan></text></g><g class="technique T1078" transform="translate(0, 85.45454545454545)"><rect class="cell" height="42.72727272727273" width="112.54545454545455" fill="white" stroke="#6B7279"/><polygon class="sidebar" transform="translate(0, 42.72727272727273)" points="0,0 12,0 12,12" fill="#6B7279" visibility="visible"/><text font-size="12" fill="black"><tspan x="4" y="17.613636363636363">Valid</tspan><tspan x="4" y="32.11363636363636">Accounts</tspan></text></g></g><g class="subtechniques"><g class="subtechnique T1078.003" transform="translate(15, 128.18181818181816)"><rect class="cell" height="42.72727272727273" width="97.54545454545455" fill="white" stroke="#6B7279"/><rect class="cell" height="42.72727272727273" width="3" transform="translate(-3, 0)" fill="#6B7279" stroke="#6B7279"/><text font-size="12" fill="black"><tspan x="4" y="17.613636363636363">Local</tspan><tspan x="4" y="32.11363636363636">Accounts</tspan></text></g></g><g class="tactic-label"><text font-size="12" fill="black" font-weight="bold"><tspan text-anchor="middle" x="56.27272727272727" y="17.613636363636363">Initial</tspan><tspan text-anchor="middle" x="56.27272727272727" y="32.11363636363636">Access</tspan></text></g></g><g class="tactic execution" transform="translate(125.05050505050505, 0)"><g class="techniques"><g class="technique T1059" transform="translate(0, 42.72727272727273)"><rect class="cell" height="42.72727272727273" width="112.54545454545455" fill="white" stroke="#6B7279"/><polygon class="sidebar" transform="translate(0, 42.72727272727273)" points="0,0 12,0 12,12" fill="#6B7279" visibility="visible"/><text font-size="11.393939393939394" fill="black"><tspan x="4" y="10.954545454545453">Command</tspan><tspan x="4" y="24.863636363636363">and Scripting</tspan><tspan x="4" y="38.77272727272727">Interpreter</tspan></text></g></g><g class="subtechniques"><g class="subtechnique T1059.008" transform="translate(15, 85.45454545454545)"><rect class="cell" height="42.72727272727273" width="97.54545454545455" fill="white" stroke="#6B7279"/><rect class="cell" height="42.72727272727273" width="3" transform="translate(-3, 0)" fill="#6B7279" stroke="#6B7279"/><text font-size="12" fill="black"><tspan x="4" y="17.613636363636363">Network</tspan><tspan x="4" y="32.11363636363636">Device CLI</tspan></text></g></g><g class="tactic-label"><text font-size="12" fill="black" font-weight="bold"><tspan text-anchor="middle" x="56.27272727272727" y="24.863636363636363">Execution</tspan></text></g></g><g class="tactic persistence" transform="translate(250.1010101010101, 0)"><g class="techniques"><g class="technique T1098" transform="translate(0, 42.72727272727273)"><rect class="cell" height="42.72727272727273" width="112.54545454545455" fill="white" stroke="#6B7279"/><polygon class="sidebar" transform="translate(0, 42.72727272727273)" points="0,0 12,0 12,12" fill="#6B7279" visibility="visible"/><text font-size="12" fill="black"><tspan x="4" y="17.613636363636363">Account</tspan><tspan x="4" y="32.11363636363636">Manipulation</tspan></text></g><g class="technique T1136" transform="translate(0, 128.18181818181816)"><rect class="cell" height="42.72727272727273" width="112.54545454545455" fill="white" stroke="#6B7279"/><polygon class="sidebar" transform="translate(0, 42.72727272727273)" points="0,0 12,0 12,12" fill="#6B7279" visibility="visible"/><text font-size="12" fill="black"><tspan x="4" y="17.613636363636363">Create</tspan><tspan x="4" y="32.11363636363636">Account</tspan></text></g><g class="technique T1542" transform="translate(0, 213.63636363636363)"><rect class="cell" height="42.72727272727273" width="112.54545454545455" fill="white" stroke="#6B7279"/><polygon class="sidebar" transform="translate(0, 42.72727272727273)" points="0,0 12,0 12,12" fill="#6B7279" visibility="visible"/><text font-size="12" fill="black"><tspan x="4" y="24.863636363636363">Pre-OS Boot</tspan></text></g><g class="technique T1078" transform="translate(0, 299.09090909090907)"><rect class="cell" height="42.72727272727273" width="112.54545454545455" fill="white" stroke="#6B7279"/><polygon class="sidebar" transform="translate(0, 42.72727272727273)" points="0,0 12,0 12,12" fill="#6B7279" visibility="visible"/><text font-size="12" fill="black"><tspan x="4" y="17.613636363636363">Valid</tspan><tspan x="4" y="32.11363636363636">Accounts</tspan></text></g></g><g class="subtechniques"><g class="subtechnique T1098.004" transform="translate(15, 85.45454545454545)"><rect class="cell" height="42.72727272727273" width="97.54545454545455" fill="white" stroke="#6B7279"/><rect class="cell" height="42.72727272727273" width="3" transform="translate(-3, 0)" fill="#6B7279" stroke="#6B7279"/><text font-size="11.393939393939394" fill="black"><tspan x="4" y="10.954545454545453">SSH</tspan><tspan x="4" y="24.863636363636363">Authorized</tspan><tspan x="4" y="38.77272727272727">Keys</tspan></text></g><g class="subtechnique T1136.001" transform="translate(15, 170.9090909090909)"><rect class="cell" height="42.72727272727273" width="97.54545454545455" fill="white" stroke="#6B7279"/><rect class="cell" height="42.72727272727273" width="3" transform="translate(-3, 0)" fill="#6B7279" stroke="#6B7279"/><text font-size="12" fill="black"><tspan x="4" y="17.613636363636363">Local</tspan><tspan x="4" y="32.11363636363636">Account</tspan></text></g><g class="subtechnique T1542.005" transform="translate(15, 256.3636363636363)"><rect class="cell" height="42.72727272727273" width="97.54545454545455" fill="white" stroke="#6B7279"/><rect class="cell" height="42.72727272727273" width="3" transform="translate(-3, 0)" fill="#6B7279" stroke="#6B7279"/><text font-size="12" fill="black"><tspan x="4" y="24.863636363636363">TFTP Boot</tspan></text></g><g class="subtechnique T1078.003" transform="translate(15, 341.8181818181818)"><rect class="cell" height="42.72727272727273" width="97.54545454545455" fill="white" stroke="#6B7279"/><rect class="cell" height="42.72727272727273" width="3" transform="translate(-3, 0)" fill="#6B7279" stroke="#6B7279"/><text font-size="12" fill="black"><tspan x="4" y="17.613636363636363">Local</tspan><tspan x="4" y="32.11363636363636">Accounts</tspan></text></g></g><g class="tactic-label"><text font-size="12" fill="black" font-weight="bold"><tspan text-anchor="middle" x="56.27272727272727" y="24.863636363636363">Persistence</tspan></text></g></g><g class="tactic privilege-escalation" transform="translate(375.1515151515151, 0)"><g class="techniques"><g class="technique T1078" transform="translate(0, 42.72727272727273)"><rect class="cell" height="42.72727272727273" width="112.54545454545455" fill="white" stroke="#6B7279"/><polygon class="sidebar" transform="translate(0, 42.72727272727273)" points="0,0 12,0 12,12" fill="#6B7279" visibility="visible"/><text font-size="12" fill="black"><tspan x="4" y="17.613636363636363">Valid</tspan><tspan x="4" y="32.11363636363636">Accounts</tspan></text></g></g><g class="subtechniques"><g class="subtechnique T1078.003" transform="translate(15, 85.45454545454545)"><rect class="cell" height="42.72727272727273" width="97.54545454545455" fill="white" stroke="#6B7279"/><rect class="cell" height="42.72727272727273" width="3" transform="translate(-3, 0)" fill="#6B7279" stroke="#6B7279"/><text font-size="12" fill="black"><tspan x="4" y="17.613636363636363">Local</tspan><tspan x="4" y="32.11363636363636">Accounts</tspan></text></g></g><g class="tactic-label"><text font-size="12" fill="black" font-weight="bold"><tspan text-anchor="middle" x="56.27272727272727" y="17.613636363636363">Privilege</tspan><tspan text-anchor="middle" x="56.27272727272727" y="32.11363636363636">Escalation</tspan></text></g></g><g class="tactic defense-evasion" transform="translate(500.2020202020202, 0)"><g class="techniques"><g class="technique T1562" transform="translate(0, 42.72727272727273)"><rect class="cell" height="42.72727272727273" width="112.54545454545455" fill="white" stroke="#6B7279"/><polygon class="sidebar" transform="translate(0, 42.72727272727273)" points="0,0 12,0 12,12" fill="#6B7279" visibility="visible"/><text font-size="12" fill="black"><tspan x="4" y="17.613636363636363">Impair</tspan><tspan x="4" y="32.11363636363636">Defenses</tspan></text></g><g class="technique T1070" transform="translate(0, 128.18181818181816)"><rect class="cell" height="42.72727272727273" width="112.54545454545455" fill="white" stroke="#6B7279"/><polygon class="sidebar" transform="translate(0, 42.72727272727273)" points="0,0 12,0 12,12" fill="#6B7279" visibility="visible"/><text font-size="11.393939393939394" fill="black"><tspan x="4" y="10.954545454545453">Indicator</tspan><tspan x="4" y="24.863636363636363">Removal</tspan><tspan x="4" y="38.77272727272727">on Host</tspan></text></g><g class="technique T1542" transform="translate(0, 213.63636363636363)"><rect class="cell" height="42.72727272727273" width="112.54545454545455" fill="white" stroke="#6B7279"/><polygon class="sidebar" transform="translate(0, 42.72727272727273)" points="0,0 12,0 12,12" fill="#6B7279" visibility="visible"/><text font-size="12" fill="black"><tspan x="4" y="24.863636363636363">Pre-OS Boot</tspan></text></g><g class="technique T1553" transform="translate(0, 299.09090909090907)"><rect class="cell" height="42.72727272727273" width="112.54545454545455" fill="white" stroke="#6B7279"/><polygon class="sidebar" transform="translate(0, 42.72727272727273)" points="0,0 12,0 12,12" fill="#6B7279" visibility="visible"/><text font-size="11.66083916083916" fill="black"><tspan x="4" y="17.613636363636363">Subvert Trust</tspan><tspan x="4" y="32.11363636363636">Controls</tspan></text></g><g class="technique T1078" transform="translate(0, 384.54545454545456)"><rect class="cell" height="42.72727272727273" width="112.54545454545455" fill="white" stroke="#6B7279"/><polygon class="sidebar" transform="translate(0, 42.72727272727273)" points="0,0 12,0 12,12" fill="#6B7279" visibility="visible"/><text font-size="12" fill="black"><tspan x="4" y="17.613636363636363">Valid</tspan><tspan x="4" y="32.11363636363636">Accounts</tspan></text></g></g><g class="subtechniques"><g class="subtechnique T1562.003" transform="translate(15, 85.45454545454545)"><rect class="cell" height="42.72727272727273" width="97.54545454545455" fill="white" stroke="#6B7279"/><rect class="cell" height="42.72727272727273" width="3" transform="translate(-3, 0)" fill="#6B7279" stroke="#6B7279"/><text font-size="9.27435064935065" fill="black"><tspan x="4" y="9.954545454545453">Impair Command</tspan><tspan x="4" y="23.863636363636363">History</tspan><tspan x="4" y="37.77272727272727">Logging</tspan></text></g><g class="subtechnique T1070.003" transform="translate(15, 170.9090909090909)"><rect class="cell" height="42.72727272727273" width="97.54545454545455" fill="white" stroke="#6B7279"/><rect class="cell" height="42.72727272727273" width="3" transform="translate(-3, 0)" fill="#6B7279" stroke="#6B7279"/><text font-size="11.393939393939394" fill="black"><tspan x="4" y="10.954545454545453">Clear</tspan><tspan x="4" y="24.863636363636363">Command</tspan><tspan x="4" y="38.77272727272727">History</tspan></text></g><g class="subtechnique T1542.005" transform="translate(15, 256.3636363636363)"><rect class="cell" height="42.72727272727273" width="97.54545454545455" fill="white" stroke="#6B7279"/><rect class="cell" height="42.72727272727273" width="3" transform="translate(-3, 0)" fill="#6B7279" stroke="#6B7279"/><text font-size="12" fill="black"><tspan x="4" y="24.863636363636363">TFTP Boot</tspan></text></g><g class="subtechnique T1553.004" transform="translate(15, 341.8181818181818)"><rect class="cell" height="42.72727272727273" width="97.54545454545455" fill="white" stroke="#6B7279"/><rect class="cell" height="42.72727272727273" width="3" transform="translate(-3, 0)" fill="#6B7279" stroke="#6B7279"/><text font-size="11.393939393939394" fill="black"><tspan x="4" y="10.954545454545453">Install</tspan><tspan x="4" y="24.863636363636363">Root</tspan><tspan x="4" y="38.77272727272727">Certificate</tspan></text></g><g class="subtechnique T1078.003" transform="translate(15, 427.27272727272725)"><rect class="cell" height="42.72727272727273" width="97.54545454545455" fill="white" stroke="#6B7279"/><rect class="cell" height="42.72727272727273" width="3" transform="translate(-3, 0)" fill="#6B7279" stroke="#6B7279"/><text font-size="12" fill="black"><tspan x="4" y="17.613636363636363">Local</tspan><tspan x="4" y="32.11363636363636">Accounts</tspan></text></g></g><g class="tactic-label"><text font-size="12" fill="black" font-weight="bold"><tspan text-anchor="middle" x="56.27272727272727" y="17.613636363636363">Defense</tspan><tspan text-anchor="middle" x="56.27272727272727" y="32.11363636363636">Evasion</tspan></text></g></g><g class="tactic credential-access" transform="translate(625.2525252525253, 0)"><g class="techniques"><g class="technique T1040" transform="translate(0, 42.72727272727273)"><rect class="cell" height="42.72727272727273" width="112.54545454545455" fill="white" stroke="#6B7279"/><polygon class="sidebar" transform="translate(0, 42.72727272727273)" points="0,0 12,0 12,0" fill="#6B7279" visibility="hidden"/><text font-size="12" fill="black"><tspan x="4" y="17.613636363636363">Network</tspan><tspan x="4" y="32.11363636363636">Sniffing</tspan></text></g><g class="technique T1552" transform="translate(0, 85.45454545454545)"><rect class="cell" height="42.72727272727273" width="112.54545454545455" fill="white" stroke="#6B7279"/><polygon class="sidebar" transform="translate(0, 42.72727272727273)" points="0,0 12,0 12,12" fill="#6B7279" visibility="visible"/><text font-size="12" fill="black"><tspan x="4" y="17.613636363636363">Unsecured</tspan><tspan x="4" y="32.11363636363636">Credentials</tspan></text></g></g><g class="subtechniques"><g class="subtechnique T1552.001" transform="translate(15, 128.18181818181816)"><rect class="cell" height="42.72727272727273" width="97.54545454545455" fill="white" stroke="#6B7279"/><rect class="cell" height="42.72727272727273" width="3" transform="translate(-3, 0)" fill="#6B7279" stroke="#6B7279"/><text font-size="11.803719008264462" fill="black"><tspan x="4" y="17.613636363636363">Credentials</tspan><tspan x="4" y="32.11363636363636">In Files</tspan></text></g><g class="subtechnique T1552.003" transform="translate(15, 170.9090909090909)"><rect class="cell" height="42.72727272727273" width="97.54545454545455" fill="white" stroke="#6B7279"/><rect class="cell" height="42.72727272727273" width="3" transform="translate(-3, 0)" fill="#6B7279" stroke="#6B7279"/><text font-size="12" fill="black"><tspan x="4" y="17.613636363636363">Bash</tspan><tspan x="4" y="32.11363636363636">History</tspan></text></g><g class="subtechnique T1552.004" transform="translate(15, 213.63636363636363)"><rect class="cell" height="42.72727272727273" width="97.54545454545455" fill="white" stroke="#6B7279"/><rect class="cell" height="42.72727272727273" width="3" transform="translate(-3, 0)" fill="#6B7279" stroke="#6B7279"/><text font-size="12" fill="black"><tspan x="4" y="17.613636363636363">Private</tspan><tspan x="4" y="32.11363636363636">Keys</tspan></text></g></g><g class="tactic-label"><text font-size="12" fill="black" font-weight="bold"><tspan text-anchor="middle" x="56.27272727272727" y="17.613636363636363">Credential</tspan><tspan text-anchor="middle" x="56.27272727272727" y="32.11363636363636">Access</tspan></text></g></g><g class="tactic discovery" transform="translate(750.3030303030303, 0)"><g class="techniques"><g class="technique T1083" transform="translate(0, 42.72727272727273)"><rect class="cell" height="42.72727272727273" width="112.54545454545455" fill="white" stroke="#6B7279"/><polygon class="sidebar" transform="translate(0, 42.72727272727273)" points="0,0 12,0 12,0" fill="#6B7279" visibility="hidden"/><text font-size="11.393939393939394" fill="black"><tspan x="4" y="10.954545454545453">File</tspan><tspan x="4" y="24.863636363636363">and Directory</tspan><tspan x="4" y="38.77272727272727">Discovery</tspan></text></g><g class="technique T1040" transform="translate(0, 85.45454545454545)"><rect class="cell" height="42.72727272727273" width="112.54545454545455" fill="white" stroke="#6B7279"/><polygon class="sidebar" transform="translate(0, 42.72727272727273)" points="0,0 12,0 12,0" fill="#6B7279" visibility="hidden"/><text font-size="12" fill="black"><tspan x="4" y="17.613636363636363">Network</tspan><tspan x="4" y="32.11363636363636">Sniffing</tspan></text></g><g class="technique T1201" transform="translate(0, 128.18181818181816)"><rect class="cell" height="42.72727272727273" width="112.54545454545455" fill="white" stroke="#6B7279"/><polygon class="sidebar" transform="translate(0, 42.72727272727273)" points="0,0 12,0 12,0" fill="#6B7279" visibility="hidden"/><text font-size="11.393939393939394" fill="black"><tspan x="4" y="10.954545454545453">Password</tspan><tspan x="4" y="24.863636363636363">Policy</tspan><tspan x="4" y="38.77272727272727">Discovery</tspan></text></g><g class="technique T1057" transform="translate(0, 170.9090909090909)"><rect class="cell" height="42.72727272727273" width="112.54545454545455" fill="white" stroke="#6B7279"/><polygon class="sidebar" transform="translate(0, 42.72727272727273)" points="0,0 12,0 12,0" fill="#6B7279" visibility="hidden"/><text font-size="12" fill="black"><tspan x="4" y="17.613636363636363">Process</tspan><tspan x="4" y="32.11363636363636">Discovery</tspan></text></g><g class="technique T1018" transform="translate(0, 213.63636363636363)"><rect class="cell" height="42.72727272727273" width="112.54545454545455" fill="white" stroke="#6B7279"/><polygon class="sidebar" transform="translate(0, 42.72727272727273)" points="0,0 12,0 12,0" fill="#6B7279" visibility="hidden"/><text font-size="11.66083916083916" fill="black"><tspan x="4" y="17.613636363636363">Remote System</tspan><tspan x="4" y="32.11363636363636">Discovery</tspan></text></g><g class="technique T1082" transform="translate(0, 256.3636363636363)"><rect class="cell" height="42.72727272727273" width="112.54545454545455" fill="white" stroke="#6B7279"/><polygon class="sidebar" transform="translate(0, 42.72727272727273)" points="0,0 12,0 12,0" fill="#6B7279" visibility="hidden"/><text font-size="11.393939393939394" fill="black"><tspan x="4" y="10.954545454545453">System</tspan><tspan x="4" y="24.863636363636363">Information</tspan><tspan x="4" y="38.77272727272727">Discovery</tspan></text></g><g class="technique T1016" transform="translate(0, 299.09090909090907)"><rect class="cell" height="42.72727272727273" width="112.54545454545455" fill="white" stroke="#6B7279"/><polygon class="sidebar" transform="translate(0, 42.72727272727273)" points="0,0 12,0 12,0" fill="#6B7279" visibility="hidden"/><text font-size="10.827922077922077" fill="black"><tspan x="4" y="10.954545454545453">System Network</tspan><tspan x="4" y="24.863636363636363">Configuration</tspan><tspan x="4" y="38.77272727272727">Discovery</tspan></text></g><g class="technique T1049" transform="translate(0, 341.8181818181818)"><rect class="cell" height="42.72727272727273" width="112.54545454545455" fill="white" stroke="#6B7279"/><polygon class="sidebar" transform="translate(0, 42.72727272727273)" points="0,0 12,0 12,0" fill="#6B7279" visibility="hidden"/><text font-size="10.827922077922077" fill="black"><tspan x="4" y="10.954545454545453">System Network</tspan><tspan x="4" y="24.863636363636363">Connections</tspan><tspan x="4" y="38.77272727272727">Discovery</tspan></text></g><g class="technique T1033" transform="translate(0, 384.54545454545456)"><rect class="cell" height="42.72727272727273" width="112.54545454545455" fill="white" stroke="#6B7279"/><polygon class="sidebar" transform="translate(0, 42.72727272727273)" points="0,0 12,0 12,0" fill="#6B7279" visibility="hidden"/><text font-size="11.393939393939394" fill="black"><tspan x="4" y="10.954545454545453">System</tspan><tspan x="4" y="24.863636363636363">Owner/User</tspan><tspan x="4" y="38.77272727272727">Discovery</tspan></text></g><g class="technique T1124" transform="translate(0, 427.27272727272725)"><rect class="cell" height="42.72727272727273" width="112.54545454545455" fill="white" stroke="#6B7279"/><polygon class="sidebar" transform="translate(0, 42.72727272727273)" points="0,0 12,0 12,0" fill="#6B7279" visibility="hidden"/><text font-size="12" fill="black"><tspan x="4" y="17.613636363636363">System Time</tspan><tspan x="4" y="32.11363636363636">Discovery</tspan></text></g></g><g class="subtechniques"/><g class="tactic-label"><text font-size="12" fill="black" font-weight="bold"><tspan text-anchor="middle" x="56.27272727272727" y="24.863636363636363">Discovery</tspan></text></g></g><g class="tactic collection" transform="translate(875.3535353535353, 0)"><g class="techniques"><g class="technique T1005" transform="translate(0, 42.72727272727273)"><rect class="cell" height="42.72727272727273" width="112.54545454545455" fill="white" stroke="#6B7279"/><polygon class="sidebar" transform="translate(0, 42.72727272727273)" points="0,0 12,0 12,0" fill="#6B7279" visibility="hidden"/><text font-size="12" fill="black"><tspan x="4" y="17.613636363636363">Data from</tspan><tspan x="4" y="32.11363636363636">Local System</tspan></text></g></g><g class="subtechniques"/><g class="tactic-label"><text font-size="12" fill="black" font-weight="bold"><tspan text-anchor="middle" x="56.27272727272727" y="24.863636363636363">Collection</tspan></text></g></g><g class="tactic exfiltration" transform="translate(1000.4040404040404, 0)"><g class="techniques"><g class="technique T1020" transform="translate(0, 42.72727272727273)"><rect class="cell" height="42.72727272727273" width="112.54545454545455" fill="white" stroke="#6B7279"/><polygon class="sidebar" transform="translate(0, 42.72727272727273)" points="0,0 12,0 12,12" fill="#6B7279" visibility="visible"/><text font-size="12" fill="black"><tspan x="4" y="17.613636363636363">Automated</tspan><tspan x="4" y="32.11363636363636">Exfiltration</tspan></text></g><g class="technique T1048" transform="translate(0, 128.18181818181816)"><rect class="cell" height="42.72727272727273" width="112.54545454545455" fill="white" stroke="#6B7279"/><polygon class="sidebar" transform="translate(0, 42.72727272727273)" points="0,0 12,0 12,12" fill="#6B7279" visibility="visible"/><text font-size="9.474431818181818" fill="black"><tspan x="4" y="9.954545454545453">Exfiltration</tspan><tspan x="4" y="23.863636363636363">Over Alternative</tspan><tspan x="4" y="37.77272727272727">Protocol</tspan></text></g></g><g class="subtechniques"><g class="subtechnique T1020.001" transform="translate(15, 85.45454545454545)"><rect class="cell" height="42.72727272727273" width="97.54545454545455" fill="white" stroke="#6B7279"/><rect class="cell" height="42.72727272727273" width="3" transform="translate(-3, 0)" fill="#6B7279" stroke="#6B7279"/><text font-size="11.803719008264462" fill="black"><tspan x="4" y="17.613636363636363">Traffic</tspan><tspan x="4" y="32.11363636363636">Duplication</tspan></text></g><g class="subtechnique T1048.003" transform="translate(15, 170.9090909090909)"><rect class="cell" height="42.72727272727273" width="97.54545454545455" fill="white" stroke="#6B7279"/><rect class="cell" height="42.72727272727273" width="3" transform="translate(-3, 0)" fill="#6B7279" stroke="#6B7279"/><text font-size="5.901859504132231" fill="black"><tspan x="4" y="8.954545454545453">Exfiltration Over</tspan><tspan x="4" y="22.863636363636363">Unencrypted/Obfuscated</tspan><tspan x="4" y="36.77272727272727">Non-C2 Protocol</tspan></text></g></g><g class="tactic-label"><text font-size="12" fill="black" font-weight="bold"><tspan text-anchor="middle" x="56.27272727272727" y="24.863636363636363">Exfiltration</tspan></text></g></g><g class="tactic impact" transform="translate(1125.4545454545455, 0)"><g class="techniques"><g class="technique T1561" transform="translate(0, 42.72727272727273)"><rect class="cell" height="42.72727272727273" width="112.54545454545455" fill="white" stroke="#6B7279"/><polygon class="sidebar" transform="translate(0, 42.72727272727273)" points="0,0 12,0 12,12" fill="#6B7279" visibility="visible"/><text font-size="12" fill="black"><tspan x="4" y="24.863636363636363">Disk Wipe</tspan></text></g><g class="technique T1490" transform="translate(0, 170.9090909090909)"><rect class="cell" height="42.72727272727273" width="112.54545454545455" fill="white" stroke="#6B7279"/><polygon class="sidebar" transform="translate(0, 42.72727272727273)" points="0,0 12,0 12,0" fill="#6B7279" visibility="hidden"/><text font-size="11.393939393939394" fill="black"><tspan x="4" y="10.954545454545453">Inhibit</tspan><tspan x="4" y="24.863636363636363">System</tspan><tspan x="4" y="38.77272727272727">Recovery</tspan></text></g><g class="technique T1529" transform="translate(0, 213.63636363636363)"><rect class="cell" height="42.72727272727273" width="112.54545454545455" fill="white" stroke="#6B7279"/><polygon class="sidebar" transform="translate(0, 42.72727272727273)" points="0,0 12,0 12,0" fill="#6B7279" visibility="hidden"/><text font-size="10.106060606060606" fill="black"><tspan x="4" y="17.613636363636363">System</tspan><tspan x="4" y="32.11363636363636">Shutdown/Reboot</tspan></text></g></g><g class="subtechniques"><g class="subtechnique T1561.001" transform="translate(15, 85.45454545454545)"><rect class="cell" height="42.72727272727273" width="97.54545454545455" fill="white" stroke="#6B7279"/><rect class="cell" height="42.72727272727273" width="3" transform="translate(-3, 0)" fill="#6B7279" stroke="#6B7279"/><text font-size="11.393939393939394" fill="black"><tspan x="4" y="10.954545454545453">Disk</tspan><tspan x="4" y="24.863636363636363">Content</tspan><tspan x="4" y="38.77272727272727">Wipe</tspan></text></g><g class="subtechnique T1561.002" transform="translate(15, 128.18181818181816)"><rect class="cell" height="42.72727272727273" width="97.54545454545455" fill="white" stroke="#6B7279"/><rect class="cell" height="42.72727272727273" width="3" transform="translate(-3, 0)" fill="#6B7279" stroke="#6B7279"/><text font-size="11.393939393939394" fill="black"><tspan x="4" y="10.954545454545453">Disk</tspan><tspan x="4" y="24.863636363636363">Structure</tspan><tspan x="4" y="38.77272727272727">Wipe</tspan></text></g></g><g class="tactic-label"><text font-size="12" fill="black" font-weight="bold"><tspan text-anchor="middle" x="56.27272727272727" y="24.863636363636363">Impact</tspan></text></g></g></g></g></g></svg>
